M48
;DRILL file {KiCad 4.0.7} date 11/07/17 22:39:59
;FORMAT={2:4/ absolute / inch / suppress leading zeros}
FMAT,2
INCH,TZ
T1C0.067
T2C0.120
T3C0.157
%
G90
G05
M72
T1
X21622Y-24803
X21622Y-32283
X21622Y-39764
X21622Y-47244
X25622Y-24803
X25622Y-32283
X25622Y-39764
X25622Y-47244
X29102Y-22047
X29102Y-29528
X29102Y-37008
X29102Y-44488
X33102Y-22047
X33102Y-29528
X33102Y-37008
X33102Y-44488
X36583Y-22047
X36583Y-29528
X36583Y-37008
X36583Y-44488
X40583Y-22047
X40583Y-29528
X40583Y-37008
X40583Y-44488
X44063Y-22047
X44063Y-29528
X44063Y-37008
X44063Y-44488
X48063Y-22047
X48063Y-29528
X48063Y-37008
X48063Y-44488
X51543Y-22047
X51543Y-29528
X51543Y-37008
X51543Y-44488
X55543Y-22047
X55543Y-29528
X55543Y-37008
X55543Y-44488
T2
X25984Y-17717
X25984Y-53543
X53150Y-17717
X53150Y-53543
T3
X23622Y-24803
X23622Y-32283
X23622Y-39764
X23622Y-47244
X31102Y-22047
X31102Y-29528
X31102Y-37008
X31102Y-44488
X38583Y-22047
X38583Y-29528
X38583Y-37008
X38583Y-44488
X46063Y-22047
X46063Y-29528
X46063Y-37008
X46063Y-44488
X53543Y-22047
X53543Y-29528
X53543Y-37008
X53543Y-44488
T0
M30
