%TF.GenerationSoftware,KiCad,Pcbnew,4.0.7*%
%TF.CreationDate,2017-11-07T22:47:46+00:00*%
%TF.ProjectId,gamepad,67616D657061642E6B696361645F7063,rev?*%
%TF.FileFunction,Soldermask,Bot*%
%FSLAX46Y46*%
G04 Gerber Fmt 4.6, Leading zero omitted, Abs format (unit mm)*
G04 Created by KiCad (PCBNEW 4.0.7) date 11/07/17 22:47:46*
%MOMM*%
%LPD*%
G01*
G04 APERTURE LIST*
%ADD10C,0.100000*%
%ADD11C,3.700000*%
%ADD12C,2.940000*%
%ADD13C,4.400000*%
%ADD14C,2.100000*%
%ADD15C,1.806400*%
%ADD16R,1.806400X1.806400*%
%ADD17R,1.924000X1.924000*%
%ADD18C,1.924000*%
%ADD19C,2.000000*%
%ADD20O,2.000000X2.000000*%
%ADD21R,2.500000X3.400000*%
%ADD22R,1.200000X2.000000*%
G04 APERTURE END LIST*
D10*
D11*
X66000000Y-45000000D03*
X66000000Y-136000000D03*
X135000000Y-136000000D03*
D12*
X56190000Y-79460000D03*
X62540000Y-76920000D03*
D13*
X60000000Y-82000000D03*
D14*
X54920000Y-82000000D03*
X65080000Y-82000000D03*
D15*
X58603000Y-87080000D03*
D16*
X61270000Y-87080000D03*
D17*
X67874000Y-73872000D03*
D18*
X64191000Y-73872000D03*
D19*
X61000000Y-131000000D03*
D20*
X68620000Y-131000000D03*
D19*
X80010000Y-125730000D03*
D20*
X87630000Y-125730000D03*
D19*
X99060000Y-125730000D03*
D20*
X106680000Y-125730000D03*
D19*
X118110000Y-125730000D03*
D20*
X125730000Y-125730000D03*
D19*
X137160000Y-125730000D03*
D20*
X144780000Y-125730000D03*
D12*
X56190000Y-98460000D03*
X62540000Y-95920000D03*
D13*
X60000000Y-101000000D03*
D14*
X54920000Y-101000000D03*
X65080000Y-101000000D03*
D15*
X58603000Y-106080000D03*
D16*
X61270000Y-106080000D03*
D17*
X67874000Y-92872000D03*
D18*
X64191000Y-92872000D03*
D12*
X56190000Y-60460000D03*
X62540000Y-57920000D03*
D13*
X60000000Y-63000000D03*
D14*
X54920000Y-63000000D03*
X65080000Y-63000000D03*
D15*
X58603000Y-68080000D03*
D16*
X61270000Y-68080000D03*
D17*
X67874000Y-54872000D03*
D18*
X64191000Y-54872000D03*
D12*
X56190000Y-117460000D03*
X62540000Y-114920000D03*
D13*
X60000000Y-120000000D03*
D14*
X54920000Y-120000000D03*
X65080000Y-120000000D03*
D15*
X58603000Y-125080000D03*
D16*
X61270000Y-125080000D03*
D17*
X67874000Y-111872000D03*
D18*
X64191000Y-111872000D03*
D12*
X75190000Y-53460000D03*
X81540000Y-50920000D03*
D13*
X79000000Y-56000000D03*
D14*
X73920000Y-56000000D03*
X84080000Y-56000000D03*
D15*
X77603000Y-61080000D03*
D16*
X80270000Y-61080000D03*
D17*
X86874000Y-47872000D03*
D18*
X83191000Y-47872000D03*
D12*
X75190000Y-72460000D03*
X81540000Y-69920000D03*
D13*
X79000000Y-75000000D03*
D14*
X73920000Y-75000000D03*
X84080000Y-75000000D03*
D15*
X77603000Y-80080000D03*
D16*
X80270000Y-80080000D03*
D17*
X86874000Y-66872000D03*
D18*
X83191000Y-66872000D03*
D12*
X75190000Y-91460000D03*
X81540000Y-88920000D03*
D13*
X79000000Y-94000000D03*
D14*
X73920000Y-94000000D03*
X84080000Y-94000000D03*
D15*
X77603000Y-99080000D03*
D16*
X80270000Y-99080000D03*
D17*
X86874000Y-85872000D03*
D18*
X83191000Y-85872000D03*
D12*
X75190000Y-110460000D03*
X81540000Y-107920000D03*
D13*
X79000000Y-113000000D03*
D14*
X73920000Y-113000000D03*
X84080000Y-113000000D03*
D15*
X77603000Y-118080000D03*
D16*
X80270000Y-118080000D03*
D17*
X86874000Y-104872000D03*
D18*
X83191000Y-104872000D03*
D12*
X94190000Y-72460000D03*
X100540000Y-69920000D03*
D13*
X98000000Y-75000000D03*
D14*
X92920000Y-75000000D03*
X103080000Y-75000000D03*
D15*
X96603000Y-80080000D03*
D16*
X99270000Y-80080000D03*
D17*
X105874000Y-66872000D03*
D18*
X102191000Y-66872000D03*
D12*
X94190000Y-53460000D03*
X100540000Y-50920000D03*
D13*
X98000000Y-56000000D03*
D14*
X92920000Y-56000000D03*
X103080000Y-56000000D03*
D15*
X96603000Y-61080000D03*
D16*
X99270000Y-61080000D03*
D17*
X105874000Y-47872000D03*
D18*
X102191000Y-47872000D03*
D12*
X94190000Y-110460000D03*
X100540000Y-107920000D03*
D13*
X98000000Y-113000000D03*
D14*
X92920000Y-113000000D03*
X103080000Y-113000000D03*
D15*
X96603000Y-118080000D03*
D16*
X99270000Y-118080000D03*
D17*
X105874000Y-104872000D03*
D18*
X102191000Y-104872000D03*
D12*
X94190000Y-91460000D03*
X100540000Y-88920000D03*
D13*
X98000000Y-94000000D03*
D14*
X92920000Y-94000000D03*
X103080000Y-94000000D03*
D15*
X96603000Y-99080000D03*
D16*
X99270000Y-99080000D03*
D17*
X105874000Y-85872000D03*
D18*
X102191000Y-85872000D03*
D12*
X113190000Y-53460000D03*
X119540000Y-50920000D03*
D13*
X117000000Y-56000000D03*
D14*
X111920000Y-56000000D03*
X122080000Y-56000000D03*
D15*
X115603000Y-61080000D03*
D16*
X118270000Y-61080000D03*
D17*
X124874000Y-47872000D03*
D18*
X121191000Y-47872000D03*
D12*
X113190000Y-72460000D03*
X119540000Y-69920000D03*
D13*
X117000000Y-75000000D03*
D14*
X111920000Y-75000000D03*
X122080000Y-75000000D03*
D15*
X115603000Y-80080000D03*
D16*
X118270000Y-80080000D03*
D17*
X124874000Y-66872000D03*
D18*
X121191000Y-66872000D03*
D12*
X113190000Y-91460000D03*
X119540000Y-88920000D03*
D13*
X117000000Y-94000000D03*
D14*
X111920000Y-94000000D03*
X122080000Y-94000000D03*
D15*
X115603000Y-99080000D03*
D16*
X118270000Y-99080000D03*
D17*
X124874000Y-85872000D03*
D18*
X121191000Y-85872000D03*
D12*
X113190000Y-110460000D03*
X119540000Y-107920000D03*
D13*
X117000000Y-113000000D03*
D14*
X111920000Y-113000000D03*
X122080000Y-113000000D03*
D15*
X115603000Y-118080000D03*
D16*
X118270000Y-118080000D03*
D17*
X124874000Y-104872000D03*
D18*
X121191000Y-104872000D03*
D12*
X132190000Y-110460000D03*
X138540000Y-107920000D03*
D13*
X136000000Y-113000000D03*
D14*
X130920000Y-113000000D03*
X141080000Y-113000000D03*
D15*
X134603000Y-118080000D03*
D16*
X137270000Y-118080000D03*
D17*
X143874000Y-104872000D03*
D18*
X140191000Y-104872000D03*
D12*
X132190000Y-91460000D03*
X138540000Y-88920000D03*
D13*
X136000000Y-94000000D03*
D14*
X130920000Y-94000000D03*
X141080000Y-94000000D03*
D15*
X134603000Y-99080000D03*
D16*
X137270000Y-99080000D03*
D17*
X143874000Y-85872000D03*
D18*
X140191000Y-85872000D03*
D12*
X132190000Y-72460000D03*
X138540000Y-69920000D03*
D13*
X136000000Y-75000000D03*
D14*
X130920000Y-75000000D03*
X141080000Y-75000000D03*
D15*
X134603000Y-80080000D03*
D16*
X137270000Y-80080000D03*
D17*
X143874000Y-66872000D03*
D18*
X140191000Y-66872000D03*
D12*
X132190000Y-53460000D03*
X138540000Y-50920000D03*
D13*
X136000000Y-56000000D03*
D14*
X130920000Y-56000000D03*
X141080000Y-56000000D03*
D15*
X134603000Y-61080000D03*
D16*
X137270000Y-61080000D03*
D17*
X143874000Y-47872000D03*
D18*
X140191000Y-47872000D03*
D19*
X118110000Y-133350000D03*
D20*
X118110000Y-140970000D03*
D19*
X121920000Y-133350000D03*
D20*
X121920000Y-140970000D03*
D19*
X81280000Y-133350000D03*
D20*
X81280000Y-140970000D03*
D19*
X85090000Y-133350000D03*
D20*
X85090000Y-140970000D03*
D11*
X135000000Y-45000000D03*
D21*
X111100000Y-138890000D03*
D22*
X94600000Y-135890000D03*
X95850000Y-135890000D03*
X97100000Y-135890000D03*
X98350000Y-135890000D03*
X99600000Y-135890000D03*
X100850000Y-135890000D03*
X102100000Y-135890000D03*
X103350000Y-135890000D03*
X104600000Y-135890000D03*
X105850000Y-135890000D03*
X107100000Y-135890000D03*
X108350000Y-135890000D03*
D21*
X91850000Y-138890000D03*
M02*
