%TF.GenerationSoftware,KiCad,Pcbnew,4.0.7*%
%TF.CreationDate,2017-11-07T22:47:46+00:00*%
%TF.ProjectId,gamepad,67616D657061642E6B696361645F7063,rev?*%
%TF.FileFunction,Legend,Bot*%
%FSLAX46Y46*%
G04 Gerber Fmt 4.6, Leading zero omitted, Abs format (unit mm)*
G04 Created by KiCad (PCBNEW 4.0.7) date 11/07/17 22:47:46*
%MOMM*%
%LPD*%
G01*
G04 APERTURE LIST*
%ADD10C,0.100000*%
%ADD11C,0.150000*%
G04 APERTURE END LIST*
D10*
D11*
X59619000Y-87715000D02*
X60127000Y-87080000D01*
X60127000Y-87080000D02*
X59619000Y-86445000D01*
X59619000Y-87715000D02*
X59619000Y-86445000D01*
X60317500Y-87080000D02*
X59428500Y-87080000D01*
X59365000Y-85302000D02*
X59365000Y-85683000D01*
X60635000Y-86191000D02*
X60127000Y-85556000D01*
X60127000Y-85556000D02*
X60127000Y-86191000D01*
X60127000Y-86191000D02*
X59365000Y-85302000D01*
X59365000Y-85302000D02*
X59746000Y-85302000D01*
X60127000Y-86445000D02*
X60127000Y-87715000D01*
X59619000Y-106715000D02*
X60127000Y-106080000D01*
X60127000Y-106080000D02*
X59619000Y-105445000D01*
X59619000Y-106715000D02*
X59619000Y-105445000D01*
X60317500Y-106080000D02*
X59428500Y-106080000D01*
X59365000Y-104302000D02*
X59365000Y-104683000D01*
X60635000Y-105191000D02*
X60127000Y-104556000D01*
X60127000Y-104556000D02*
X60127000Y-105191000D01*
X60127000Y-105191000D02*
X59365000Y-104302000D01*
X59365000Y-104302000D02*
X59746000Y-104302000D01*
X60127000Y-105445000D02*
X60127000Y-106715000D01*
X59619000Y-68715000D02*
X60127000Y-68080000D01*
X60127000Y-68080000D02*
X59619000Y-67445000D01*
X59619000Y-68715000D02*
X59619000Y-67445000D01*
X60317500Y-68080000D02*
X59428500Y-68080000D01*
X59365000Y-66302000D02*
X59365000Y-66683000D01*
X60635000Y-67191000D02*
X60127000Y-66556000D01*
X60127000Y-66556000D02*
X60127000Y-67191000D01*
X60127000Y-67191000D02*
X59365000Y-66302000D01*
X59365000Y-66302000D02*
X59746000Y-66302000D01*
X60127000Y-67445000D02*
X60127000Y-68715000D01*
X59619000Y-125715000D02*
X60127000Y-125080000D01*
X60127000Y-125080000D02*
X59619000Y-124445000D01*
X59619000Y-125715000D02*
X59619000Y-124445000D01*
X60317500Y-125080000D02*
X59428500Y-125080000D01*
X59365000Y-123302000D02*
X59365000Y-123683000D01*
X60635000Y-124191000D02*
X60127000Y-123556000D01*
X60127000Y-123556000D02*
X60127000Y-124191000D01*
X60127000Y-124191000D02*
X59365000Y-123302000D01*
X59365000Y-123302000D02*
X59746000Y-123302000D01*
X60127000Y-124445000D02*
X60127000Y-125715000D01*
X78619000Y-61715000D02*
X79127000Y-61080000D01*
X79127000Y-61080000D02*
X78619000Y-60445000D01*
X78619000Y-61715000D02*
X78619000Y-60445000D01*
X79317500Y-61080000D02*
X78428500Y-61080000D01*
X78365000Y-59302000D02*
X78365000Y-59683000D01*
X79635000Y-60191000D02*
X79127000Y-59556000D01*
X79127000Y-59556000D02*
X79127000Y-60191000D01*
X79127000Y-60191000D02*
X78365000Y-59302000D01*
X78365000Y-59302000D02*
X78746000Y-59302000D01*
X79127000Y-60445000D02*
X79127000Y-61715000D01*
X78619000Y-80715000D02*
X79127000Y-80080000D01*
X79127000Y-80080000D02*
X78619000Y-79445000D01*
X78619000Y-80715000D02*
X78619000Y-79445000D01*
X79317500Y-80080000D02*
X78428500Y-80080000D01*
X78365000Y-78302000D02*
X78365000Y-78683000D01*
X79635000Y-79191000D02*
X79127000Y-78556000D01*
X79127000Y-78556000D02*
X79127000Y-79191000D01*
X79127000Y-79191000D02*
X78365000Y-78302000D01*
X78365000Y-78302000D02*
X78746000Y-78302000D01*
X79127000Y-79445000D02*
X79127000Y-80715000D01*
X78619000Y-99715000D02*
X79127000Y-99080000D01*
X79127000Y-99080000D02*
X78619000Y-98445000D01*
X78619000Y-99715000D02*
X78619000Y-98445000D01*
X79317500Y-99080000D02*
X78428500Y-99080000D01*
X78365000Y-97302000D02*
X78365000Y-97683000D01*
X79635000Y-98191000D02*
X79127000Y-97556000D01*
X79127000Y-97556000D02*
X79127000Y-98191000D01*
X79127000Y-98191000D02*
X78365000Y-97302000D01*
X78365000Y-97302000D02*
X78746000Y-97302000D01*
X79127000Y-98445000D02*
X79127000Y-99715000D01*
X78619000Y-118715000D02*
X79127000Y-118080000D01*
X79127000Y-118080000D02*
X78619000Y-117445000D01*
X78619000Y-118715000D02*
X78619000Y-117445000D01*
X79317500Y-118080000D02*
X78428500Y-118080000D01*
X78365000Y-116302000D02*
X78365000Y-116683000D01*
X79635000Y-117191000D02*
X79127000Y-116556000D01*
X79127000Y-116556000D02*
X79127000Y-117191000D01*
X79127000Y-117191000D02*
X78365000Y-116302000D01*
X78365000Y-116302000D02*
X78746000Y-116302000D01*
X79127000Y-117445000D02*
X79127000Y-118715000D01*
X97619000Y-80715000D02*
X98127000Y-80080000D01*
X98127000Y-80080000D02*
X97619000Y-79445000D01*
X97619000Y-80715000D02*
X97619000Y-79445000D01*
X98317500Y-80080000D02*
X97428500Y-80080000D01*
X97365000Y-78302000D02*
X97365000Y-78683000D01*
X98635000Y-79191000D02*
X98127000Y-78556000D01*
X98127000Y-78556000D02*
X98127000Y-79191000D01*
X98127000Y-79191000D02*
X97365000Y-78302000D01*
X97365000Y-78302000D02*
X97746000Y-78302000D01*
X98127000Y-79445000D02*
X98127000Y-80715000D01*
X97619000Y-61715000D02*
X98127000Y-61080000D01*
X98127000Y-61080000D02*
X97619000Y-60445000D01*
X97619000Y-61715000D02*
X97619000Y-60445000D01*
X98317500Y-61080000D02*
X97428500Y-61080000D01*
X97365000Y-59302000D02*
X97365000Y-59683000D01*
X98635000Y-60191000D02*
X98127000Y-59556000D01*
X98127000Y-59556000D02*
X98127000Y-60191000D01*
X98127000Y-60191000D02*
X97365000Y-59302000D01*
X97365000Y-59302000D02*
X97746000Y-59302000D01*
X98127000Y-60445000D02*
X98127000Y-61715000D01*
X97619000Y-118715000D02*
X98127000Y-118080000D01*
X98127000Y-118080000D02*
X97619000Y-117445000D01*
X97619000Y-118715000D02*
X97619000Y-117445000D01*
X98317500Y-118080000D02*
X97428500Y-118080000D01*
X97365000Y-116302000D02*
X97365000Y-116683000D01*
X98635000Y-117191000D02*
X98127000Y-116556000D01*
X98127000Y-116556000D02*
X98127000Y-117191000D01*
X98127000Y-117191000D02*
X97365000Y-116302000D01*
X97365000Y-116302000D02*
X97746000Y-116302000D01*
X98127000Y-117445000D02*
X98127000Y-118715000D01*
X97619000Y-99715000D02*
X98127000Y-99080000D01*
X98127000Y-99080000D02*
X97619000Y-98445000D01*
X97619000Y-99715000D02*
X97619000Y-98445000D01*
X98317500Y-99080000D02*
X97428500Y-99080000D01*
X97365000Y-97302000D02*
X97365000Y-97683000D01*
X98635000Y-98191000D02*
X98127000Y-97556000D01*
X98127000Y-97556000D02*
X98127000Y-98191000D01*
X98127000Y-98191000D02*
X97365000Y-97302000D01*
X97365000Y-97302000D02*
X97746000Y-97302000D01*
X98127000Y-98445000D02*
X98127000Y-99715000D01*
X116619000Y-61715000D02*
X117127000Y-61080000D01*
X117127000Y-61080000D02*
X116619000Y-60445000D01*
X116619000Y-61715000D02*
X116619000Y-60445000D01*
X117317500Y-61080000D02*
X116428500Y-61080000D01*
X116365000Y-59302000D02*
X116365000Y-59683000D01*
X117635000Y-60191000D02*
X117127000Y-59556000D01*
X117127000Y-59556000D02*
X117127000Y-60191000D01*
X117127000Y-60191000D02*
X116365000Y-59302000D01*
X116365000Y-59302000D02*
X116746000Y-59302000D01*
X117127000Y-60445000D02*
X117127000Y-61715000D01*
X116619000Y-80715000D02*
X117127000Y-80080000D01*
X117127000Y-80080000D02*
X116619000Y-79445000D01*
X116619000Y-80715000D02*
X116619000Y-79445000D01*
X117317500Y-80080000D02*
X116428500Y-80080000D01*
X116365000Y-78302000D02*
X116365000Y-78683000D01*
X117635000Y-79191000D02*
X117127000Y-78556000D01*
X117127000Y-78556000D02*
X117127000Y-79191000D01*
X117127000Y-79191000D02*
X116365000Y-78302000D01*
X116365000Y-78302000D02*
X116746000Y-78302000D01*
X117127000Y-79445000D02*
X117127000Y-80715000D01*
X116619000Y-99715000D02*
X117127000Y-99080000D01*
X117127000Y-99080000D02*
X116619000Y-98445000D01*
X116619000Y-99715000D02*
X116619000Y-98445000D01*
X117317500Y-99080000D02*
X116428500Y-99080000D01*
X116365000Y-97302000D02*
X116365000Y-97683000D01*
X117635000Y-98191000D02*
X117127000Y-97556000D01*
X117127000Y-97556000D02*
X117127000Y-98191000D01*
X117127000Y-98191000D02*
X116365000Y-97302000D01*
X116365000Y-97302000D02*
X116746000Y-97302000D01*
X117127000Y-98445000D02*
X117127000Y-99715000D01*
X116619000Y-118715000D02*
X117127000Y-118080000D01*
X117127000Y-118080000D02*
X116619000Y-117445000D01*
X116619000Y-118715000D02*
X116619000Y-117445000D01*
X117317500Y-118080000D02*
X116428500Y-118080000D01*
X116365000Y-116302000D02*
X116365000Y-116683000D01*
X117635000Y-117191000D02*
X117127000Y-116556000D01*
X117127000Y-116556000D02*
X117127000Y-117191000D01*
X117127000Y-117191000D02*
X116365000Y-116302000D01*
X116365000Y-116302000D02*
X116746000Y-116302000D01*
X117127000Y-117445000D02*
X117127000Y-118715000D01*
X135619000Y-118715000D02*
X136127000Y-118080000D01*
X136127000Y-118080000D02*
X135619000Y-117445000D01*
X135619000Y-118715000D02*
X135619000Y-117445000D01*
X136317500Y-118080000D02*
X135428500Y-118080000D01*
X135365000Y-116302000D02*
X135365000Y-116683000D01*
X136635000Y-117191000D02*
X136127000Y-116556000D01*
X136127000Y-116556000D02*
X136127000Y-117191000D01*
X136127000Y-117191000D02*
X135365000Y-116302000D01*
X135365000Y-116302000D02*
X135746000Y-116302000D01*
X136127000Y-117445000D02*
X136127000Y-118715000D01*
X135619000Y-99715000D02*
X136127000Y-99080000D01*
X136127000Y-99080000D02*
X135619000Y-98445000D01*
X135619000Y-99715000D02*
X135619000Y-98445000D01*
X136317500Y-99080000D02*
X135428500Y-99080000D01*
X135365000Y-97302000D02*
X135365000Y-97683000D01*
X136635000Y-98191000D02*
X136127000Y-97556000D01*
X136127000Y-97556000D02*
X136127000Y-98191000D01*
X136127000Y-98191000D02*
X135365000Y-97302000D01*
X135365000Y-97302000D02*
X135746000Y-97302000D01*
X136127000Y-98445000D02*
X136127000Y-99715000D01*
X135619000Y-80715000D02*
X136127000Y-80080000D01*
X136127000Y-80080000D02*
X135619000Y-79445000D01*
X135619000Y-80715000D02*
X135619000Y-79445000D01*
X136317500Y-80080000D02*
X135428500Y-80080000D01*
X135365000Y-78302000D02*
X135365000Y-78683000D01*
X136635000Y-79191000D02*
X136127000Y-78556000D01*
X136127000Y-78556000D02*
X136127000Y-79191000D01*
X136127000Y-79191000D02*
X135365000Y-78302000D01*
X135365000Y-78302000D02*
X135746000Y-78302000D01*
X136127000Y-79445000D02*
X136127000Y-80715000D01*
X135619000Y-61715000D02*
X136127000Y-61080000D01*
X136127000Y-61080000D02*
X135619000Y-60445000D01*
X135619000Y-61715000D02*
X135619000Y-60445000D01*
X136317500Y-61080000D02*
X135428500Y-61080000D01*
X135365000Y-59302000D02*
X135365000Y-59683000D01*
X136635000Y-60191000D02*
X136127000Y-59556000D01*
X136127000Y-59556000D02*
X136127000Y-60191000D01*
X136127000Y-60191000D02*
X135365000Y-59302000D01*
X135365000Y-59302000D02*
X135746000Y-59302000D01*
X136127000Y-60445000D02*
X136127000Y-61715000D01*
X90100000Y-141890000D02*
X90100000Y-141640000D01*
X90100000Y-141640000D02*
X90100000Y-136890000D01*
X90100000Y-136890000D02*
X93350000Y-136890000D01*
X93350000Y-136890000D02*
X93350000Y-134390000D01*
X93350000Y-134390000D02*
X109600000Y-134390000D01*
X109600000Y-134390000D02*
X109600000Y-136890000D01*
X109600000Y-136890000D02*
X113100000Y-136890000D01*
X113100000Y-136890000D02*
X113100000Y-141890000D01*
X113100000Y-141890000D02*
X90100000Y-141890000D01*
X102088095Y-137425714D02*
X102088095Y-138092381D01*
X102516667Y-137425714D02*
X102516667Y-137949524D01*
X102469048Y-138044762D01*
X102373810Y-138092381D01*
X102230952Y-138092381D01*
X102135714Y-138044762D01*
X102088095Y-137997143D01*
X101040476Y-137997143D02*
X101088095Y-138044762D01*
X101230952Y-138092381D01*
X101326190Y-138092381D01*
X101469048Y-138044762D01*
X101564286Y-137949524D01*
X101611905Y-137854286D01*
X101659524Y-137663810D01*
X101659524Y-137520952D01*
X101611905Y-137330476D01*
X101564286Y-137235238D01*
X101469048Y-137140000D01*
X101326190Y-137092381D01*
X101230952Y-137092381D01*
X101088095Y-137140000D01*
X101040476Y-137187619D01*
X100611905Y-138092381D02*
X100611905Y-137425714D01*
X100611905Y-137092381D02*
X100659524Y-137140000D01*
X100611905Y-137187619D01*
X100564286Y-137140000D01*
X100611905Y-137092381D01*
X100611905Y-137187619D01*
X100135715Y-137425714D02*
X100135715Y-138092381D01*
X100135715Y-137520952D02*
X100088096Y-137473333D01*
X99992858Y-137425714D01*
X99850000Y-137425714D01*
X99754762Y-137473333D01*
X99707143Y-137568571D01*
X99707143Y-138092381D01*
X99373810Y-137425714D02*
X98992858Y-137425714D01*
X99230953Y-137092381D02*
X99230953Y-137949524D01*
X99183334Y-138044762D01*
X99088096Y-138092381D01*
X98992858Y-138092381D01*
X98135714Y-138092381D02*
X98707143Y-138092381D01*
X98421429Y-138092381D02*
X98421429Y-137092381D01*
X98516667Y-137235238D01*
X98611905Y-137330476D01*
X98707143Y-137378095D01*
X105338095Y-132247143D02*
X105385714Y-132294762D01*
X105528571Y-132342381D01*
X105623809Y-132342381D01*
X105766667Y-132294762D01*
X105861905Y-132199524D01*
X105909524Y-132104286D01*
X105957143Y-131913810D01*
X105957143Y-131770952D01*
X105909524Y-131580476D01*
X105861905Y-131485238D01*
X105766667Y-131390000D01*
X105623809Y-131342381D01*
X105528571Y-131342381D01*
X105385714Y-131390000D01*
X105338095Y-131437619D01*
X104766667Y-132342381D02*
X104861905Y-132294762D01*
X104909524Y-132247143D01*
X104957143Y-132151905D01*
X104957143Y-131866190D01*
X104909524Y-131770952D01*
X104861905Y-131723333D01*
X104766667Y-131675714D01*
X104623809Y-131675714D01*
X104528571Y-131723333D01*
X104480952Y-131770952D01*
X104433333Y-131866190D01*
X104433333Y-132151905D01*
X104480952Y-132247143D01*
X104528571Y-132294762D01*
X104623809Y-132342381D01*
X104766667Y-132342381D01*
X104004762Y-131675714D02*
X104004762Y-132342381D01*
X104004762Y-131770952D02*
X103957143Y-131723333D01*
X103861905Y-131675714D01*
X103719047Y-131675714D01*
X103623809Y-131723333D01*
X103576190Y-131818571D01*
X103576190Y-132342381D01*
X103100000Y-131675714D02*
X103100000Y-132342381D01*
X103100000Y-131770952D02*
X103052381Y-131723333D01*
X102957143Y-131675714D01*
X102814285Y-131675714D01*
X102719047Y-131723333D01*
X102671428Y-131818571D01*
X102671428Y-132342381D01*
X102433333Y-132437619D02*
X101671428Y-132437619D01*
X101242857Y-131342381D02*
X101147618Y-131342381D01*
X101052380Y-131390000D01*
X101004761Y-131437619D01*
X100957142Y-131532857D01*
X100909523Y-131723333D01*
X100909523Y-131961429D01*
X100957142Y-132151905D01*
X101004761Y-132247143D01*
X101052380Y-132294762D01*
X101147618Y-132342381D01*
X101242857Y-132342381D01*
X101338095Y-132294762D01*
X101385714Y-132247143D01*
X101433333Y-132151905D01*
X101480952Y-131961429D01*
X101480952Y-131723333D01*
X101433333Y-131532857D01*
X101385714Y-131437619D01*
X101338095Y-131390000D01*
X101242857Y-131342381D01*
X99957142Y-132342381D02*
X100528571Y-132342381D01*
X100242857Y-132342381D02*
X100242857Y-131342381D01*
X100338095Y-131485238D01*
X100433333Y-131580476D01*
X100528571Y-131628095D01*
X99623809Y-132342381D02*
X99099999Y-131675714D01*
X99623809Y-131675714D02*
X99099999Y-132342381D01*
X98195237Y-132342381D02*
X98766666Y-132342381D01*
X98480952Y-132342381D02*
X98480952Y-131342381D01*
X98576190Y-131485238D01*
X98671428Y-131580476D01*
X98766666Y-131628095D01*
X97814285Y-131437619D02*
X97766666Y-131390000D01*
X97671428Y-131342381D01*
X97433332Y-131342381D01*
X97338094Y-131390000D01*
X97290475Y-131437619D01*
X97242856Y-131532857D01*
X97242856Y-131628095D01*
X97290475Y-131770952D01*
X97861904Y-132342381D01*
X97242856Y-132342381D01*
M02*
