M48
;DRILL file {KiCad 4.0.7} date 11/07/17 22:39:59
;FORMAT={2:4/ absolute / inch / suppress leading zeros}
FMAT,2
INCH,TZ
T1C0.016
T2C0.030
T3C0.031
T4C0.039
T5C0.059
%
G90
G05
M72
T1
X27500Y-49500
X38000Y-55000
T2
X25272Y-21603
X25272Y-29083
X25272Y-36564
X25272Y-44044
X26722Y-21603
X26722Y-29083
X26722Y-36564
X26722Y-44044
X32752Y-18847
X32752Y-26328
X32752Y-33808
X32752Y-41288
X34202Y-18847
X34202Y-26328
X34202Y-33808
X34202Y-41288
X40233Y-18847
X40233Y-26328
X40233Y-33808
X40233Y-41288
X41683Y-18847
X41683Y-26328
X41683Y-33808
X41683Y-41288
X47713Y-18847
X47713Y-26328
X47713Y-33808
X47713Y-41288
X49163Y-18847
X49163Y-26328
X49163Y-33808
X49163Y-41288
X55193Y-18847
X55193Y-26328
X55193Y-33808
X55193Y-41288
X56643Y-18847
X56643Y-26328
X56643Y-33808
X56643Y-41288
T3
X24016Y-51575
X27016Y-51575
X31500Y-49500
X32000Y-52500
X32000Y-55500
X33500Y-52500
X33500Y-55500
X34500Y-49500
X39000Y-49500
X42000Y-49500
X46500Y-49500
X46500Y-52500
X46500Y-55500
X48000Y-52500
X48000Y-55500
X49500Y-49500
X54000Y-49500
X57000Y-49500
T4
X23072Y-26803
X23072Y-34283
X23072Y-41764
X23072Y-49244
X24122Y-26803
X24122Y-34283
X24122Y-41764
X24122Y-49244
X30552Y-24047
X30552Y-31528
X30552Y-39008
X30552Y-46488
X31602Y-24047
X31602Y-31528
X31602Y-39008
X31602Y-46488
X38033Y-24047
X38033Y-31528
X38033Y-39008
X38033Y-46488
X39083Y-24047
X39083Y-31528
X39083Y-39008
X39083Y-46488
X45513Y-24047
X45513Y-31528
X45513Y-39008
X45513Y-46488
X46563Y-24047
X46563Y-31528
X46563Y-39008
X46563Y-46488
X52993Y-24047
X52993Y-31528
X52993Y-39008
X52993Y-46488
X54043Y-24047
X54043Y-31528
X54043Y-39008
X54043Y-46488
T5
X22122Y-23803
X22122Y-31283
X22122Y-38764
X22122Y-46244
X24622Y-22803
X24622Y-30283
X24622Y-37764
X24622Y-45244
X29602Y-21047
X29602Y-28528
X29602Y-36008
X29602Y-43488
X32102Y-20047
X32102Y-27528
X32102Y-35008
X32102Y-42488
X37083Y-21047
X37083Y-28528
X37083Y-36008
X37083Y-43488
X39583Y-20047
X39583Y-27528
X39583Y-35008
X39583Y-42488
X44563Y-21047
X44563Y-28528
X44563Y-36008
X44563Y-43488
X47063Y-20047
X47063Y-27528
X47063Y-35008
X47063Y-42488
X52043Y-21047
X52043Y-28528
X52043Y-36008
X52043Y-43488
X54543Y-20047
X54543Y-27528
X54543Y-35008
X54543Y-42488
T0
M30
